<svg width="32" height="32" viewBox="0 0 32 32" fill="none" xmlns="http://www.w3.org/2000/svg">
<path d="M9.33331 26.6667V11.9667C9.33331 11.2333 9.59998 10.6111 10.1333 10.1C10.6666 9.58888 11.3 9.33333 12.0333 9.33333H26.6666C27.4 9.33333 28.028 9.59422 28.5506 10.116C29.0733 10.6378 29.3342 11.2658 29.3333 12V21.5667C29.3333 21.9222 29.2666 22.2613 29.1333 22.584C29 22.9067 28.8111 23.1898 28.5666 23.4333L23.4333 28.5667C23.1889 28.8111 22.9053 29 22.5826 29.1333C22.26 29.2667 21.9213 29.3333 21.5666 29.3333H12C11.2666 29.3333 10.6386 29.072 10.116 28.5493C9.59331 28.0267 9.33242 27.3991 9.33331 26.6667ZM2.69998 8.33333C2.56664 7.59999 2.71109 6.93866 3.13331 6.34933C3.55553 5.75999 4.13331 5.3991 4.86664 5.26666L19.3333 2.69999C20.0666 2.56666 20.728 2.7111 21.3173 3.13333C21.9066 3.55555 22.2675 4.13333 22.4 4.86666L22.7333 6.66666H20L19.7666 5.33333L5.33331 7.89999L6.66664 15.4333V24.7333C6.31109 24.5333 6.00576 24.2667 5.75064 23.9333C5.49553 23.6 5.3342 23.2222 5.26664 22.8L2.69998 8.33333ZM12 12V26.6667H21.3333L26.6666 21.3333V12H12ZM18 20.6667V23.3333C18 23.7111 18.128 24.028 18.384 24.284C18.64 24.54 18.9564 24.6675 19.3333 24.6667C19.7111 24.6667 20.028 24.5387 20.284 24.2827C20.54 24.0267 20.6675 23.7102 20.6666 23.3333V20.6667H23.3333C23.7111 20.6667 24.028 20.5387 24.284 20.2827C24.54 20.0267 24.6675 19.7102 24.6666 19.3333C24.6666 18.9555 24.5386 18.6387 24.2826 18.3827C24.0266 18.1267 23.7102 17.9991 23.3333 18H20.6666V15.3333C20.6666 14.9555 20.5386 14.6387 20.2826 14.3827C20.0266 14.1267 19.7102 13.9991 19.3333 14C18.9555 14 18.6386 14.128 18.3826 14.384C18.1266 14.64 17.9991 14.9564 18 15.3333V18H15.3333C14.9555 18 14.6386 18.128 14.3826 18.384C14.1266 18.64 13.9991 18.9564 14 19.3333C14 19.7111 14.128 20.028 14.384 20.284C14.64 20.54 14.9564 20.6675 15.3333 20.6667H18Z" fill="white"/>
</svg>
