<svg width="24" height="24" viewBox="0 0 24 24" fill="none" xmlns="http://www.w3.org/2000/svg">
<g opacity="0.5">
<path d="M14.1 19C15.7167 19 17.1043 18.475 18.263 17.425C19.4217 16.375 20.0007 15.0667 20 13.5C20 11.9333 19.4207 10.625 18.262 9.575C17.1033 8.525 15.716 8 14.1 8H7.8L10.4 5.4L9 4L4 9L9 14L10.4 12.6L7.8 10H14.1C15.15 10 16.0627 10.3333 16.838 11C17.6133 11.6667 18.0007 12.5 18 13.5C18 14.5 17.6123 15.3333 16.837 16C16.0617 16.6667 15.1493 17 14.1 17H7V19H14.1Z" fill="#868484"/>
</g>
</svg>
