<svg width="96" height="96" viewBox="0 0 96 96" fill="none" xmlns="http://www.w3.org/2000/svg">
<path d="M67.6125 0.206253C65.4375 0.712509 63.0375 2.7 62.025 4.83751C61.4438 6.075 61.3875 6.13126 60.525 6.33751C57.5063 7.05 54.8063 9.54375 53.7375 12.6188L53.325 13.8188L40.5 10.3688C33.4313 8.47501 27.3188 6.93751 26.8875 6.93751C25.35 6.93751 26.0438 4.70625 16.7063 39.5625C12.0563 56.9438 8.25 71.4 8.25 71.6813C8.25 71.9625 8.475 72.4313 8.775 72.75C9.24375 73.275 9.80625 73.4625 15.4688 74.9813L21.6563 76.6313L21.75 85.8563L21.8438 95.1L22.3688 95.55L22.8938 96H54.15H85.3875L85.9125 95.4938L86.4375 94.9875V62.3813V29.775L87.0938 27.3563C87.8438 24.5438 87.8813 24.0375 87.375 23.3813C86.9062 22.8 87.225 22.8938 79.1438 20.7375C75.5063 19.7625 72.4875 18.9375 72.45 18.9C72.3938 18.825 72.6938 17.4188 72.7875 17.3813C72.8063 17.3625 73.4062 17.0625 74.0813 16.725C76.2938 15.6375 78 13.4813 78.6562 10.9688C79.8 6.525 77.1375 1.72501 72.7313 0.356255C71.4938 -0.0374908 68.9438 -0.0937424 67.6125 0.206253ZM72.4875 4.59376C73.9313 5.43751 75 7.2375 75 8.81251C75 10.8563 73.35 13.0125 71.3625 13.5938C69 14.2875 66.6188 13.2188 65.5125 10.9688C65.1 10.0875 65.025 9.76875 65.1 8.68125C65.1375 7.96876 65.325 7.10625 65.5125 6.73125C65.9063 5.90626 66.9938 4.7625 67.7625 4.36876C69.0938 3.675 71.0813 3.76875 72.4875 4.59376ZM61.4813 11.55C61.9875 13.125 62.8875 14.5125 64.0313 15.525C65.025 16.4063 66.825 17.3438 67.9125 17.5313L68.6063 17.6625L68.2313 18.4125C67.2188 20.3813 65.1938 21.6375 62.9813 21.6375C60.6188 21.6375 58.4063 20.1 57.5625 17.8688C56.55 15.1688 57.6188 12.2438 60.1875 10.7063C60.5438 10.5 60.9 10.3125 60.9563 10.3125C61.0125 10.3125 61.2563 10.875 61.4813 11.55ZM40.6875 14.5125C47.1375 16.2375 52.6125 17.7188 52.875 17.7938C53.2313 17.9063 53.4375 18.2063 53.7563 19.0875C53.9813 19.725 54.3188 20.4563 54.4875 20.7188C54.8063 21.2063 54.8063 21.2063 53.6438 22.3875C52.3313 23.7188 52.0688 24.4688 52.575 25.4625C52.95 26.1938 53.4 26.4375 54.375 26.4375C55.0875 26.4375 55.2938 26.325 56.4 25.2375L57.6563 24.0563L58.2188 24.3938C59.025 24.9 60.9375 25.4625 62.3063 25.6125C64.6125 25.8375 67.6313 24.825 69.4313 23.2313L70.3125 22.4625L76.8375 24.225L83.3625 25.9688L77.0438 49.5C73.575 62.4375 70.65 73.0125 70.575 72.9938C70.4813 72.9938 68.3438 72.4313 65.8125 71.7563C63.2813 71.0813 61.0125 70.5 60.75 70.4813C58.9313 70.3125 58.8188 70.5 57.2063 76.5375L55.8375 81.675L45.1125 78.8063C39.225 77.2313 29.625 74.6625 23.775 73.0875C17.925 71.5313 13.0312 70.1813 12.9 70.1063C12.5438 69.8813 28.3125 11.2125 28.6875 11.3063C28.8375 11.3438 34.2375 12.7875 40.6875 14.5125ZM82.5 68.5313V92.25H54.0938H25.6875V85.0313C25.6875 80.0063 25.7438 77.8125 25.8938 77.8125C26.0063 77.8125 33.0188 79.6688 41.4938 81.9563C50.2313 84.3 57.15 86.0625 57.4688 86.025C58.1813 85.95 73.4438 77.1375 73.7812 76.6125C73.9125 76.3875 75.9 69.15 78.2063 60.525C80.5125 51.8813 82.425 44.8125 82.4625 44.8125C82.4813 44.8125 82.5 55.4813 82.5 68.5313ZM64.8375 75.6C66 75.9188 66.9188 76.2 66.9 76.2188C66.675 76.425 60.525 79.8938 60.4875 79.8375C60.45 79.8188 60.7313 78.6563 61.1063 77.2875C61.7625 74.8313 61.7813 74.7938 62.25 74.9063C62.5125 74.9625 63.675 75.2813 64.8375 75.6Z" fill="#703410"/>
<path d="M30.8062 31.9687C30.15 32.4375 29.9062 33.525 30.2625 34.3687C30.4125 34.7437 30.7312 35.1562 30.975 35.25C31.9687 35.7 68.55 45.375 69.225 45.375C70.95 45.375 71.7187 43.0125 70.3125 41.9812C69.7125 41.5312 33.0187 31.6875 31.9687 31.6875C31.5562 31.6875 31.0312 31.8187 30.8062 31.9687Z" fill="#703410"/>
<path d="M29.325 38.9812C28.1625 39.4687 27.75 41.1562 28.5562 42.0938C28.9312 42.525 30.9187 43.1062 47.8125 47.6437C58.1625 50.4187 66.9375 52.6875 67.275 52.6875C69.1687 52.6875 69.6937 49.6687 67.9312 48.975C67.65 48.8625 62.475 47.4375 56.4375 45.8437C50.4 44.2312 42.225 42.0375 38.25 40.9688C30.3375 38.85 29.9062 38.7562 29.325 38.9812Z" fill="#703410"/>
<path d="M27.15 46.425C26.4938 46.7813 26.25 47.2313 26.25 48.1688C26.25 49.6125 26.4375 49.7063 32.7188 51.3938C36.6375 52.4438 38.5125 52.875 38.925 52.8C39.825 52.6125 40.4063 51.8813 40.4063 50.8875C40.4063 49.4063 40.1625 49.275 33.9 47.6063C30.8813 46.8 28.2375 46.125 28.0313 46.1438C27.825 46.1438 27.4313 46.2563 27.15 46.425Z" fill="#703410"/>
<path d="M45.4313 51.4687C44.8313 51.9 44.55 52.9125 44.8125 53.7187C45.0938 54.5625 45.7313 54.9937 46.725 54.9937C47.3625 54.9937 47.6063 54.8812 48.0375 54.3937C49.2 53.0812 48.3938 51.1875 46.65 51.1875C46.2 51.1875 45.6563 51.3187 45.4313 51.4687Z" fill="#703410"/>
</svg>
